<svg width="320" height="320" viewBox="0 0 320 320" fill="none" xmlns="http://www.w3.org/2000/svg">
  <rect width="320" height="320" rx="72" fill="#1A0D0D"/>
  <circle cx="160" cy="160" r="104" fill="#FFCB05"/>
  <path d="M117 116C129.3 103.1 147.1 96 160 96C182.1 96 201.7 109.3 210.8 129.5C200.5 119.1 185.4 112 168.7 112H151C134.4 112 121.3 117.9 110.6 128.6L95 144.5C91.1 148.4 86.7 151.4 81.8 153.3L97.5 124.8C102.7 119.3 109.2 116 117 116Z" fill="#D92E2E"/>
  <path d="M116 176C128.4 184.1 143.3 188.1 159.6 188.1C179.1 188.1 195.4 182.8 207.7 173.2C214 168.4 217.6 160.4 217.6 151.6C217.6 145.3 215 139.3 210.4 134.4C205.5 129.2 197.8 124.8 189.2 122.3C176.1 118.5 161.4 117.6 147.3 119.7C132.5 121.8 121.1 127.4 113.6 135.7C108 142 104.7 149.9 103.2 158.4C102.3 163.8 103 170.2 104.4 175.9L116 176Z" fill="#FF7A00"/>
  <path d="M117 205C135 215.9 155.7 221.7 178.4 221.7C197.1 221.7 212.7 217.7 224.9 209.8L211.2 188.8C202.7 193.4 192.2 196.7 180.8 198.4C164.3 200.7 149.2 198.9 136.9 193.2C126.4 188.2 117.8 181.4 111.9 172.7L96.4 193.1C102.9 200.8 109.5 205.9 117 205Z" fill="#B61A1A"/>
  <rect x="84" y="88" width="152" height="32" rx="16" fill="#FFF0C2"/>
  <path d="M112 96H206" stroke="#B61A1A" stroke-width="8" stroke-linecap="round"/>
</svg>
