<svg width="640" height="480" viewBox="0 0 640 480" fill="none" xmlns="http://www.w3.org/2000/svg">
  <rect width="640" height="480" rx="56" fill="#FFF8E7"/>
  <circle cx="320" cy="240" r="170" fill="#FFCB05" fill-opacity="0.24"/>
  <rect x="182" y="150" width="276" height="180" rx="44" fill="#1A0D0D"/>
  <path d="M226 212C226 183.8 248.8 161 277 161H363C391.2 161 414 183.8 414 212V250C414 278.2 391.2 301 363 301H277C248.8 301 226 278.2 226 250V212Z" fill="#D92E2E"/>
  <path d="M250 214C250 194.1 266.1 178 286 178H354C373.9 178 390 194.1 390 214V250C390 269.9 373.9 286 354 286H286C266.1 286 250 269.9 250 250V214Z" fill="#FF7A00"/>
  <circle cx="286" cy="224" r="18" fill="#FFF8E7"/>
  <circle cx="354" cy="224" r="18" fill="#FFF8E7"/>
  <path d="M284 256C298 268 342 268 356 256" stroke="#FFF8E7" stroke-width="10" stroke-linecap="round"/>
  <path d="M204 332H436" stroke="#1A0D0D" stroke-width="20" stroke-linecap="round"/>
</svg>
